<svg width="201" height="151" viewBox="0 0 201 151" fill="none" xmlns="http://www.w3.org/2000/svg">
<rect x="0.156464" y="0.989655" width="200" height="150" rx="3" fill="black"/>
<path d="M64.8285 95.6792V101.263H63.7085V95.6792H64.8285ZM72.023 95.6792V101.263H70.903V97.6312L69.407 101.263H68.559L67.055 97.6312V101.263H65.935V95.6792H67.207L68.983 99.8312L70.759 95.6792H72.023ZM76.5544 100.199H74.3304L73.9624 101.263H72.7864L74.7944 95.6712H76.0984L78.1064 101.263H76.9224L76.5544 100.199ZM76.2504 99.3032L75.4424 96.9672L74.6344 99.3032H76.2504ZM82.7449 97.3592C82.6169 97.1245 82.4409 96.9458 82.2169 96.8232C81.9929 96.7005 81.7316 96.6392 81.4329 96.6392C81.1022 96.6392 80.8089 96.7138 80.5529 96.8632C80.2969 97.0125 80.0969 97.2258 79.9529 97.5032C79.8089 97.7805 79.7369 98.1005 79.7369 98.4632C79.7369 98.8365 79.8089 99.1618 79.9529 99.4392C80.1022 99.7165 80.3076 99.9298 80.5689 100.079C80.8302 100.228 81.1342 100.303 81.4809 100.303C81.9076 100.303 82.2569 100.191 82.5289 99.9672C82.8009 99.7378 82.9796 99.4205 83.0649 99.0152H81.1449V98.1592H84.1689V99.1352C84.0943 99.5245 83.9343 99.8845 83.6889 100.215C83.4436 100.546 83.1262 100.812 82.7369 101.015C82.3529 101.212 81.9209 101.311 81.4409 101.311C80.9022 101.311 80.4142 101.191 79.9769 100.951C79.5449 100.706 79.2036 100.367 78.9529 99.9352C78.7076 99.5032 78.5849 99.0125 78.5849 98.4632C78.5849 97.9138 78.7076 97.4232 78.9529 96.9912C79.2036 96.5538 79.5449 96.2152 79.9769 95.9752C80.4142 95.7298 80.8996 95.6072 81.4329 95.6072C82.0622 95.6072 82.6089 95.7618 83.0729 96.0712C83.5369 96.3752 83.8569 96.8045 84.0329 97.3592H82.7449ZM86.1175 96.5832V97.9832H87.9975V98.8712H86.1175V100.351H88.2375V101.263H84.9975V95.6712H88.2375V96.5832H86.1175ZM95.9376 101.263H94.8176L92.2816 97.4312V101.263H91.1616V95.6712H92.2816L94.8176 99.5112V95.6712H95.9376V101.263ZM99.6364 101.319C99.1137 101.319 98.6337 101.196 98.1964 100.951C97.7591 100.706 97.4124 100.367 97.1564 99.9352C96.9004 99.4978 96.7724 99.0045 96.7724 98.4552C96.7724 97.9112 96.9004 97.4232 97.1564 96.9912C97.4124 96.5538 97.7591 96.2125 98.1964 95.9672C98.6337 95.7218 99.1137 95.5992 99.6364 95.5992C100.164 95.5992 100.644 95.7218 101.076 95.9672C101.514 96.2125 101.858 96.5538 102.108 96.9912C102.364 97.4232 102.492 97.9112 102.492 98.4552C102.492 99.0045 102.364 99.4978 102.108 99.9352C101.858 100.367 101.514 100.706 101.076 100.951C100.639 101.196 100.159 101.319 99.6364 101.319ZM99.6364 100.319C99.9724 100.319 100.268 100.244 100.524 100.095C100.78 99.9405 100.98 99.7218 101.124 99.4392C101.268 99.1565 101.34 98.8285 101.34 98.4552C101.34 98.0818 101.268 97.7565 101.124 97.4792C100.98 97.1965 100.78 96.9805 100.524 96.8312C100.268 96.6818 99.9724 96.6072 99.6364 96.6072C99.3004 96.6072 99.0017 96.6818 98.7404 96.8312C98.4844 96.9805 98.2844 97.1965 98.1404 97.4792C97.9964 97.7565 97.9244 98.0818 97.9244 98.4552C97.9244 98.8285 97.9964 99.1565 98.1404 99.4392C98.2844 99.7218 98.4844 99.9405 98.7404 100.095C99.0017 100.244 99.3004 100.319 99.6364 100.319ZM107.126 95.6792V96.5832H105.638V101.263H104.518V96.5832H103.03V95.6792H107.126ZM113.297 95.6792V96.5832H110.969V98.0152H112.753V98.9032H110.969V101.263H109.849V95.6792H113.297ZM116.683 101.319C116.161 101.319 115.681 101.196 115.243 100.951C114.806 100.706 114.459 100.367 114.203 99.9352C113.947 99.4978 113.819 99.0045 113.819 98.4552C113.819 97.9112 113.947 97.4232 114.203 96.9912C114.459 96.5538 114.806 96.2125 115.243 95.9672C115.681 95.7218 116.161 95.5992 116.683 95.5992C117.211 95.5992 117.691 95.7218 118.123 95.9672C118.561 96.2125 118.905 96.5538 119.155 96.9912C119.411 97.4232 119.539 97.9112 119.539 98.4552C119.539 99.0045 119.411 99.4978 119.155 99.9352C118.905 100.367 118.561 100.706 118.123 100.951C117.686 101.196 117.206 101.319 116.683 101.319ZM116.683 100.319C117.019 100.319 117.315 100.244 117.571 100.095C117.827 99.9405 118.027 99.7218 118.171 99.4392C118.315 99.1565 118.387 98.8285 118.387 98.4552C118.387 98.0818 118.315 97.7565 118.171 97.4792C118.027 97.1965 117.827 96.9805 117.571 96.8312C117.315 96.6818 117.019 96.6072 116.683 96.6072C116.347 96.6072 116.049 96.6818 115.787 96.8312C115.531 96.9805 115.331 97.1965 115.187 97.4792C115.043 97.7565 114.971 98.0818 114.971 98.4552C114.971 98.8285 115.043 99.1565 115.187 99.4392C115.331 99.7218 115.531 99.9405 115.787 100.095C116.049 100.244 116.347 100.319 116.683 100.319ZM121.477 95.6792V99.1352C121.477 99.5138 121.575 99.8045 121.773 100.007C121.97 100.204 122.247 100.303 122.605 100.303C122.967 100.303 123.247 100.204 123.445 100.007C123.642 99.8045 123.741 99.5138 123.741 99.1352V95.6792H124.869V99.1272C124.869 99.6018 124.765 100.004 124.557 100.335C124.354 100.66 124.079 100.906 123.733 101.071C123.391 101.236 123.01 101.319 122.589 101.319C122.173 101.319 121.794 101.236 121.453 101.071C121.117 100.906 120.85 100.66 120.653 100.335C120.455 100.004 120.357 99.6018 120.357 99.1272V95.6792H121.477ZM130.727 101.263H129.607L127.071 97.4312V101.263H125.951V95.6712H127.071L129.607 99.5112V95.6712H130.727V101.263ZM133.785 95.6792C134.372 95.6792 134.887 95.7938 135.329 96.0232C135.777 96.2525 136.121 96.5805 136.361 97.0072C136.607 97.4285 136.729 97.9192 136.729 98.4792C136.729 99.0392 136.607 99.5298 136.361 99.9512C136.121 100.367 135.777 100.69 135.329 100.919C134.887 101.148 134.372 101.263 133.785 101.263H131.833V95.6792H133.785ZM133.745 100.311C134.332 100.311 134.785 100.151 135.105 99.8312C135.425 99.5112 135.585 99.0605 135.585 98.4792C135.585 97.8978 135.425 97.4445 135.105 97.1192C134.785 96.7885 134.332 96.6232 133.745 96.6232H132.953V100.311H133.745Z" fill="white"/>
<g clip-path="url(#clip0_12_7)">
<path d="M113.396 53.1581H86.9169V76.7289L102.295 61.0812C102.605 60.7656 103.026 60.5883 103.465 60.5883C103.904 60.5883 104.324 60.7656 104.635 61.0812L113.396 70.0112V53.1581ZM83.607 51.4627C83.6101 51.0205 83.7839 50.5973 84.0911 50.2845C84.3983 49.9717 84.8141 49.7944 85.2487 49.7908H115.064C115.971 49.7908 116.706 50.54 116.706 51.4627V78.4243C116.703 78.8664 116.529 79.2896 116.222 79.6024C115.915 79.9153 115.499 80.0926 115.064 80.0961H85.2487C84.8132 80.0957 84.3956 79.9193 84.0878 79.6058C83.7799 79.2924 83.607 78.8674 83.607 78.4243V51.4627ZM93.5367 63.2598C92.6589 63.2598 91.817 62.9051 91.1962 62.2736C90.5755 61.6421 90.2268 60.7856 90.2268 59.8926C90.2268 58.9995 90.5755 58.1431 91.1962 57.5116C91.817 56.8801 92.6589 56.5253 93.5367 56.5253C94.4145 56.5253 95.2564 56.8801 95.8771 57.5116C96.4979 58.1431 96.8466 58.9995 96.8466 59.8926C96.8466 60.7856 96.4979 61.6421 95.8771 62.2736C95.2564 62.9051 94.4145 63.2598 93.5367 63.2598Z" fill="#8257E6"/>
</g>
<defs>
<clipPath id="clip0_12_7">
<rect width="39.7187" height="40.407" fill="white" transform="translate(80.2971 43.4897)"/>
</clipPath>
</defs>
</svg>
