<svg width="66" height="19" viewBox="0 0 66 19" fill="none" xmlns="http://www.w3.org/2000/svg">
<rect x="0.512787" y="0.936523" width="64.8972" height="17.127" rx="3" fill="#8257E6"/>
<path d="M10.0443 13L7.24433 6H8.47433L10.1443 10.25C10.2243 10.4567 10.2943 10.6433 10.3543 10.81C10.421 10.9767 10.4777 11.13 10.5243 11.27C10.571 11.4033 10.6143 11.53 10.6543 11.65C10.6943 11.77 10.7343 11.89 10.7743 12.01L10.5143 12.02C10.561 11.86 10.611 11.6933 10.6643 11.52C10.7177 11.3467 10.7777 11.1567 10.8443 10.95C10.9177 10.7433 11.0043 10.51 11.1043 10.25L12.6543 6H13.9143L11.0943 13H10.0443ZM18.8528 13.06C18.3128 13.06 17.8294 12.9433 17.4028 12.71C16.9761 12.47 16.6394 12.1433 16.3928 11.73C16.1528 11.31 16.0328 10.8367 16.0328 10.31V5.99H17.1128V10.22C17.1128 10.56 17.1928 10.8667 17.3528 11.14C17.5128 11.4067 17.7228 11.62 17.9828 11.78C18.2494 11.94 18.5394 12.02 18.8528 12.02C19.1861 12.02 19.4861 11.94 19.7528 11.78C20.0261 11.62 20.2428 11.4067 20.4028 11.14C20.5628 10.8667 20.6428 10.56 20.6428 10.22V5.99H21.6728V10.31C21.6728 10.8367 21.5494 11.31 21.3028 11.73C21.0628 12.1433 20.7294 12.47 20.3028 12.71C19.8761 12.9433 19.3928 13.06 18.8528 13.06ZM24.5351 13V6H25.6151V11.96H28.8951V13H24.5351ZM32.0116 13V7.04H30.0516V6H35.1116V7.04H33.0916V13H32.0116ZM40.1633 13.06C39.6233 13.06 39.14 12.9433 38.7133 12.71C38.2867 12.47 37.95 12.1433 37.7033 11.73C37.4633 11.31 37.3433 10.8367 37.3433 10.31V5.99H38.4233V10.22C38.4233 10.56 38.5033 10.8667 38.6633 11.14C38.8233 11.4067 39.0333 11.62 39.2933 11.78C39.56 11.94 39.85 12.02 40.1633 12.02C40.4967 12.02 40.7967 11.94 41.0633 11.78C41.3367 11.62 41.5533 11.4067 41.7133 11.14C41.8733 10.8667 41.9533 10.56 41.9533 10.22V5.99H42.9833V10.31C42.9833 10.8367 42.86 11.31 42.6133 11.73C42.3733 12.1433 42.04 12.47 41.6133 12.71C41.1867 12.9433 40.7033 13.06 40.1633 13.06ZM45.8457 13V6H48.8257C49.2257 6 49.5923 6.1 49.9257 6.3C50.2657 6.49333 50.5357 6.76 50.7357 7.1C50.9357 7.43333 51.0357 7.81 51.0357 8.23C51.0357 8.61 50.9357 8.96333 50.7357 9.29C50.5357 9.61667 50.269 9.88 49.9357 10.08C49.6023 10.2733 49.2323 10.37 48.8257 10.37H46.9257V13H45.8457ZM50.0057 13L48.2257 9.84L49.3357 9.59L51.3157 13.01L50.0057 13ZM46.9257 9.33H48.9257C49.119 9.33 49.2923 9.28333 49.4457 9.19C49.599 9.09 49.719 8.95667 49.8057 8.79C49.8923 8.61667 49.9357 8.42667 49.9357 8.22C49.9357 7.98667 49.879 7.78333 49.7657 7.61C49.659 7.43 49.5057 7.29 49.3057 7.19C49.1123 7.09 48.8923 7.04 48.6457 7.04H46.9257V9.33ZM53.7988 13V6H58.2088V7.04H54.8788V11.96H58.2088V13H53.7988ZM54.2888 9.93V8.89H57.6588V9.93H54.2888Z" fill="#13131F"/>
</svg>
